<?xml version="1.0" standalone="no"?>
<!DOCTYPE svg PUBLIC "-//W3C//DTD SVG 1.1//EN" "http://www.w3.org/Graphics/SVG/1.1/DTD/svg11.dtd" >
<svg xmlns="http://www.w3.org/2000/svg">
<metadata></metadata>
<defs>
<font id="fritzsanslab700thin" horiz-adv-x="1105" >
<font-face units-per-em="2048" ascent="1638" descent="-410" />
<missing-glyph horiz-adv-x="500" />
<glyph horiz-adv-x="0" />
<glyph unicode="&#xd;" horiz-adv-x="2048" />
<glyph unicode="!" horiz-adv-x="681" d="M74 0h143h2h143v287h-143h-2h-143v-287zM74 381h286v143v766v144h-286v-144v-766v-143z" />
<glyph unicode="&#x22;" horiz-adv-x="1085" d="M74 764h286v143v383v144h-286v-144v-383v-143zM430 764h287v143v383v144h-287v-144v-383v-143z" />
<glyph unicode="#" horiz-adv-x="1417" d="M-2 381h143h35l-29 -219l-22 -162h291l14 125l33 256h156l-27 -219l-21 -162h289l14 125l32 256h122h143v287h-143h-86l12 96h74h143v287h-143h-38l28 221l20 162h-288l-15 -125l-32 -258h-154l29 221l22 162h-291l-14 -125l-33 -258h-121h-143v-287h143h84l-13 -96h-71 h-143v-287zM500 668l12 96h155l-12 -96h-155z" />
<glyph unicode="$" horiz-adv-x="1392" d="M72 104h143h217v-84v-143h287v143v84h213h143v144v467v143h-143h-213v184h69v-110h287v254v143h-143h-213v84v143h-287v-143v-84h-217h-143v-143v-471v-144h143h217v-180h-74v111h-286v-254v-144zM358 858v184h74v-184h-74zM719 391v180h69v-180h-69z" />
<glyph unicode="%" horiz-adv-x="1507" d="M-2 678h143h302l-263 -465l-121 -213h330l41 74l219 387v-318v-143h144h325h144v143v469v144h-144h-302l263 465l121 213h-330l-41 -74l-219 -387v317v144h-143h-326h-143v-144v-469v-143zM285 965v182h39v-182h-39zM936 287v182h39v-182h-39z" />
<glyph unicode="&#x26;" horiz-adv-x="1466" d="M0 0h143h430h72l43 57l88 118l123 -130l43 -45h62h73h144v287h-144h-12l-114 120l124 164h2h144v287h-144h-73h-72l-43 -57l-138 -183l-160 170l87 91l39 41v57v313v144h-144h-358h-143v-144v-313v-57l39 -41l85 -91l-157 -165l-39 -41v-58v-381v-143zM287 287v180 l107 112l183 -193l-75 -99h-215zM358 1034v113h72v-113l-36 -38z" />
<glyph unicode="'" horiz-adv-x="618" d="M43 764h287v143v383v144h-287v-144v-383v-143z" />
<glyph unicode="(" horiz-adv-x="681" d="M-6 649l8 -31l152 -690l24 -112h293l-39 174l-143 659l143 664l39 174h-293l-24 -113l-152 -694z" />
<glyph unicode=")" horiz-adv-x="681" d="M-37 -184h293l25 112l151 690l8 31l-8 31l-151 694l-25 113h-293l39 -174l143 -664l-143 -659z" />
<glyph unicode="*" horiz-adv-x="962" d="M-55 922l147 -246l123 74v-35v-144h287v144v33l121 -72l147 246l-123 73l-13 9l13 8l123 73l-147 246l-121 -72v31v144h-287v-144v-33l-123 74l-147 -246l123 -73l13 -8l-13 -9z" />
<glyph unicode="+" horiz-adv-x="1378" d="M-2 571h143h281v-237v-144h287v144v237h280h144v287h-144h-280v238v143h-287v-143v-238h-281h-143v-287z" />
<glyph unicode="," horiz-adv-x="493" d="M-63 330l26 -166l37 -227l18 -121h291l-26 166l-37 227l-19 121h-290z" />
<glyph unicode="-" horiz-adv-x="874" d="M-2 571h143h344h144v287h-144h-344h-143v-287z" />
<glyph unicode="." horiz-adv-x="520" d="M-6 0h143h2h144v287h-144h-2h-143v-287z" />
<glyph unicode="/" horiz-adv-x="999" d="M-72 0h310l36 90l469 1147l80 197h-309l-37 -91l-469 -1146z" />
<glyph unicode="0" d="M0 0h143h574h143v143v1147v144h-143h-574h-143v-144v-1147v-143zM287 287v860h286v-860h-286z" />
<glyph unicode="1" horiz-adv-x="890" d="M0 1147h143h37v-1004v-143h287v143v1147v144h-143h-181h-143v-287z" />
<glyph unicode="2" d="M0 0h143h574h143v287h-143h-430v284h430h143v144v575v144h-143h-574h-143v-287h143h430v-289h-430h-143v-143v-572v-143z" />
<glyph unicode="3" d="M0 0h143h574h143v143v428v287v432v144h-143h-574h-143v-287h143h430v-289h-237h-143v-287h143h237v-284h-430h-143v-287z" />
<glyph unicode="4" horiz-adv-x="1249" d="M0 207h143h420v-64v-143h287v143v64h10h144v287h-144h-10v796v144h-225l-41 -70l-564 -940l-20 -39v-178zM397 494l166 278v-278h-166z" />
<glyph unicode="5" d="M0 0h143h574h143v143v717v144h-143h-430v143h430h143v287h-143h-574h-143v-144v-430v-143h143h430v-430h-430h-143v-287z" />
<glyph unicode="6" d="M0 0h143h574h143v143v717v144h-143h-430v143h430h143v287h-143h-574h-143v-144v-286v-287v-574v-143zM287 287v430h286v-430h-286z" />
<glyph unicode="7" d="M0 1147h143h392l-240 -969l-43 -178h295l26 109l283 1146l43 179h-39h-143h-574h-143v-287z" />
<glyph unicode="8" d="M0 0h143h574h143v143v428v144v143v432v144h-143h-574h-143v-144v-432v-143v-144v-428v-143zM287 287v284h286v-284h-286zM287 858v289h286v-289h-286z" />
<glyph unicode="9" d="M0 0h143h574h143v143v428v287v432v144h-143h-574h-143v-144v-575v-144h143h430v-284h-430h-143v-287zM287 858v289h286v-289h-286z" />
<glyph unicode=":" horiz-adv-x="618" d="M43 0h143h2h144v287h-144h-2h-143v-287zM43 764h143h2h144v287h-144h-2h-143v-287z" />
<glyph unicode=";" horiz-adv-x="618" d="M-102 -219h307l35 92l82 219l71 195h-307l-35 -92l-82 -220zM43 764h143h2h144v287h-144h-2h-143v-287z" />
<glyph unicode="&#x3c;" horiz-adv-x="1310" d="M-2 625l80 -39l780 -381l207 -101v320l-80 39l-516 252l516 252l80 39v319l-207 -100l-780 -381l-80 -39v-180z" />
<glyph unicode="=" horiz-adv-x="1441" d="M-2 381h143h912h143v287h-143h-912h-143v-287zM-2 764h143h912h143v287h-143h-912h-143v-287z" />
<glyph unicode="&#x3e;" horiz-adv-x="1441" d="M-2 119l199 82l911 381l88 36v193l-88 37l-911 381l-199 82v-312l88 -36l594 -248l-594 -248l-88 -37v-311z" />
<glyph unicode="?" d="M-2 860h287v287h288v-354l-223 -150l-63 -41v-78v-166h286v88l224 150l63 41v78v575v144h-143h-576h-143v-144v-430zM287 0h143h2h143v287h-143h-2h-143v-287z" />
<glyph unicode="A" horiz-adv-x="1320" d="M-135 0h305l35 92l63 166h19h430h18l62 -166l34 -92h308l-72 195l-428 1144l-35 93h-198l-35 -93l-432 -1144zM376 545l128 336l125 -336h-253z" />
<glyph unicode="B" horiz-adv-x="1107" d="M0 0h143h144h432h143v143v381v35l-16 31l-65 125l65 125l16 30v35v383v144h-143h-432h-144h-143v-144v-143v-287v-287v-284v-144v-143zM287 287v284h245l43 -82v-202h-288zM287 858v287h288v-205l-43 -82h-245z" />
<glyph unicode="C" d="M0 0h143h574h143v287h-143h-430v858h430h143v287h-143h-574h-143v-144v-1145v-143z" />
<glyph unicode="D" horiz-adv-x="1107" d="M0 0h143h144h336h92l37 82l96 207l14 30v31v731v31l-14 31l-96 207l-37 82h-92h-336h-144h-143v-144v-143v-858v-144v-143zM287 287v858h243l45 -94v-670l-45 -94h-243z" />
<glyph unicode="E" horiz-adv-x="1107" d="M0 0h143h144h432h143v287h-143h-432v284h215h143v287h-143h-215v287h432h143v287h-143h-432h-144h-143v-144v-143v-287v-287v-284v-144v-143z" />
<glyph unicode="F" horiz-adv-x="1107" d="M0 0h287v143v428h215h143v287h-143h-215v287h432h143v287h-143h-432h-144h-143v-144v-143v-287v-287v-428v-143z" />
<glyph unicode="G" d="M0 0h143h574h143v143v572v143h-143h-154h-143v-287h143h10v-284h-286v858h430h143v287h-143h-574h-143v-144v-1145v-143z" />
<glyph unicode="H" d="M0 0h287v143v428h286v-428v-143h287v143v428v287v430v144h-287v-144v-430h-286v430v144h-287v-144v-430v-287v-428v-143z" />
<glyph unicode="I" horiz-adv-x="569" d="M2 0h287v143v1145v144h-287v-144v-1145v-143z" />
<glyph unicode="J" horiz-adv-x="819" d="M0 0v-287h143h287h143v144v1433v144h-286v-144v-1290h-144h-143z" />
<glyph unicode="K" d="M0 0h287v143v412l309 -487l43 -68h338l-139 219l-314 496l314 497l139 220h-340l-41 -68l-309 -489v413v144h-287v-144v-1145v-143z" />
<glyph unicode="L" horiz-adv-x="1034" d="M0 0h143h144h358h143v287h-143h-358v1001v144h-287v-144v-1001v-144v-143z" />
<glyph unicode="M" horiz-adv-x="1476" d="M0 0h287v143v422l196 -477l37 -88h193l37 88l194 475v-420v-143h287v143v1145v144h-240l-37 -89l-338 -823l-340 823l-36 89h-240v-144v-1145v-143z" />
<glyph unicode="N" d="M0 0h287v143v539l301 -602l41 -80h231v143v1145v144h-287v-144v-538l-301 602l-41 80h-231v-144v-1145v-143z" />
<glyph unicode="O" horiz-adv-x="1034" d="M0 0h143h502h143v143v1145v144h-143h-502h-143v-144v-1145v-143zM287 287v858h215v-858h-215z" />
<glyph unicode="P" horiz-adv-x="1107" d="M0 0h287v143v428h432h143v144v573v144h-143h-432h-144h-143v-144v-143v-287v-287v-428v-143zM287 858v287h288v-287h-288z" />
<glyph unicode="Q" d="M0 0h143h195v-61v-93h184v93v61h195h143v143v1145v144h-143h-574h-143v-144v-1145v-143zM287 287v858h286v-858h-51v65v92h-184v-92v-65h-51z" />
<glyph unicode="R" horiz-adv-x="1126" d="M0 0h287v143v428h193l118 -462l29 -109h295l-45 178l-129 505l104 136l29 37v49v383v144h-144h-450h-144h-143v-144v-143v-287v-287v-428v-143zM287 858v287h307v-191l-74 -96h-112h-121z" />
<glyph unicode="S" d="M0 0h143h574h143v143v430v80l-67 41l-506 318v133h430h143v287h-143h-574h-143v-144v-356v-80l68 -41l505 -317v-207h-430h-143v-287z" />
<glyph unicode="T" d="M0 1145h143h146v-1002v-143h286v143v1002h142h143v287h-143h-142h-286h-146h-143v-287z" />
<glyph unicode="U" d="M0 0h143h574h143v143v1145v144h-287v-144v-1001h-286v1001v144h-287v-144v-1145v-143z" />
<glyph unicode="V" horiz-adv-x="1146" d="M-43 1432l47 -181l307 -1145l29 -106h221l29 106l307 1145l47 181h-297l-29 -107l-167 -629l-168 629l-29 107h-297z" />
<glyph unicode="W" horiz-adv-x="1617" d="M-31 1432l33 -170l219 -1145l23 -117h227l29 104l188 658l184 -658l29 -104h227l23 117l219 1145l33 170h-293l-23 -117l-104 -547l-158 559l-28 105h-217l-29 -105l-162 -563l-104 551l-23 117h-293z" />
<glyph unicode="X" d="M-88 0h319l41 80l158 315l158 -315l41 -80h319l-102 207l-255 509l255 509l102 207h-319l-41 -80l-158 -315l-158 315l-41 80h-319l102 -207l255 -509l-255 -509z" />
<glyph unicode="Y" d="M-88 1432l102 -207l273 -545v-537v-143h286v143v537l273 545l102 207h-319l-41 -80l-158 -316l-158 316l-41 80h-319z" />
<glyph unicode="Z" d="M0 0h143h574h143v287h-143h-342l471 938l14 28v179h-143h-574h-143v-287h143h342l-471 -938l-14 -27v-180z" />
<glyph unicode="[" horiz-adv-x="712" d="M-2 -102v-144h143h183h143v287h-143h-39v1098h39h143v286h-143h-183h-143v-143v-1384z" />
<glyph unicode="\" horiz-adv-x="907" d="M-57 1434l61 -189l377 -1147l33 -98h303l-62 188l-376 1147l-33 99h-303z" />
<glyph unicode="]" horiz-adv-x="712" d="M-2 41v-287h143h183h143v144v1384v143h-143h-183h-143v-286h143h39v-1098h-39h-143z" />
<glyph unicode="^" horiz-adv-x="1062" d="M-84 571h317l39 84l136 293l135 -293l39 -84h317l-94 203l-266 576l-39 84h-185l-39 -84l-266 -576z" />
<glyph unicode="_" horiz-adv-x="1288" d="M-2 -18v-287h143h758h143v287h-143h-758h-143z" />
<glyph unicode="`" horiz-adv-x="555" d="M-20 1434l20 -162l25 -195l14 -125h289l-21 162l-24 195l-15 125h-288z" />
<glyph unicode="a" horiz-adv-x="962" d="M0 0h143h287h143h144v143v144v71v287v215v144h-144h-430h-143v-287h143h287v-72h-287h-143v-143v-359v-143zM287 287v71h143v-71h-143z" />
<glyph unicode="b" horiz-adv-x="962" d="M0 0h143h144h286h144v143v717v144h-144h-286v430v143h-287v-143v-430v-287v-430v-144v-143zM287 287v430h143v-430h-143z" />
<glyph unicode="c" horiz-adv-x="962" d="M0 2h143h430h144v287h-144h-286v428h286h144v287h-144h-430h-143v-144v-715v-143z" />
<glyph unicode="d" horiz-adv-x="962" d="M0 0h143h287h143h144v143v144v430v287v430v143h-287v-143v-430h-287h-143v-144v-717v-143zM287 287v430h143v-430h-143z" />
<glyph unicode="e" horiz-adv-x="962" d="M0 0h143h430h144v287h-144h-286v71h286h144v144v358v144h-144h-430h-143v-144v-215v-287v-215v-143zM287 645v72h143v-72h-143z" />
<glyph unicode="f" horiz-adv-x="819" d="M0 717h74v-574v-143h286v143v574h142v287h-142v286h70h143v287h-143h-213h-143v-143v-430h-74v-287z" />
<glyph unicode="g" horiz-adv-x="962" d="M0 0h143h287v-143h-287h-143v-287h143h430h144v143v287v287v430v143v144h-144h-143h-287h-143v-144v-717v-143zM287 287v430h143v-430h-143z" />
<glyph unicode="h" horiz-adv-x="962" d="M0 0h287v143v574h143v-574v-143h287v143v717v144h-144h-286v368v144h-287v-144v-368v-287v-574v-143z" />
<glyph unicode="i" horiz-adv-x="604" d="M0 0h287v143v717v144h-287v-144v-717v-143zM0 1075h143h2h144v287h-144h-2h-143v-287z" />
<glyph unicode="j" horiz-adv-x="747" d="M-2 -143v-287h143h217h144v143v1147v144h-287v-144v-1003h-74h-143zM215 1075h143h2h144v287h-144h-2h-143v-287z" />
<glyph unicode="k" horiz-adv-x="962" d="M0 0h287v143v191l164 -266l43 -68h335l-133 219l-170 277l170 292l127 216h-331l-41 -72l-164 -279v781v143h-287v-143v-1291v-143z" />
<glyph unicode="l" horiz-adv-x="675" d="M0 0h143h144h143v287h-143v1147v143h-287v-143v-1147v-144v-143z" />
<glyph unicode="m" horiz-adv-x="1392" d="M0 0h287v143v574h143v-574v-143h287v143v574h143v-574v-143h287v143v717v144h-143h-287h-144h-143h-143h-144h-143v-144v-143v-574v-143z" />
<glyph unicode="n" horiz-adv-x="962" d="M0 0h287v143v574h143v-574v-143h287v143v717v144h-144h-286h-144h-143v-144v-143v-574v-143z" />
<glyph unicode="o" horiz-adv-x="962" d="M0 0h143h430h144v143v717v144h-144h-430h-143v-144v-717v-143zM287 287v430h143v-430h-143z" />
<glyph unicode="p" horiz-adv-x="962" d="M0 0v-287v-143h287v143v287h286h144v143v717v144h-144h-286h-144h-143v-144v-143v-430v-287zM287 287v430h143v-430h-143z" />
<glyph unicode="q" horiz-adv-x="962" d="M0 0h143h287v-287v-143h287v143v287v287v430v143v144h-144h-143h-287h-143v-144v-717v-143zM287 287v430h143v-430h-143z" />
<glyph unicode="r" horiz-adv-x="819" d="M0 0h287v143v574h143h143v287h-143h-143h-144h-143v-144v-143v-574v-143z" />
<glyph unicode="s" horiz-adv-x="962" d="M0 0h143h430h144v143v250v82l-72 41l-341 201h269h144v287h-144h-430h-143v-144v-215v-82l72 -41l358 -211v-24h-287h-143v-287z" />
<glyph unicode="t" horiz-adv-x="819" d="M0 717h72v-574v-143h143h215h143v287h-143h-72v430h144v287h-144v307v143h-286v-143v-307h-72v-287z" />
<glyph unicode="u" horiz-adv-x="962" d="M0 0h143h287h143h144v143v144v573v144h-287v-144v-573h-143v573v144h-287v-144v-717v-143z" />
<glyph unicode="v" horiz-adv-x="1003" d="M-55 1004l63 -189l238 -717l30 -98h209l33 98l234 717l59 189h-301l-33 -99l-98 -303l-100 303l-31 99h-303z" />
<glyph unicode="w" horiz-adv-x="1464" d="M-49 1004l55 -185l215 -717l31 -102h209l33 96l116 332l117 -332l35 -96h207l30 102l213 717l56 185h-299l-31 -103l-88 -295l-107 301l-34 97h-203l-33 -97l-104 -299l-88 293l-31 103h-299z" />
<glyph unicode="x" horiz-adv-x="962" d="M-111 0h336l41 70l92 153l93 -153l41 -70h335l-131 217l-170 285l170 284l131 218h-335l-41 -70l-93 -154l-92 154l-41 70h-336l131 -218l171 -284l-171 -285z" />
<glyph unicode="y" horiz-adv-x="962" d="M-63 -430h305l37 92l161 430l269 717l71 195h-307l-35 -93l-99 -264l-56 244l-25 113h-295l41 -175l152 -672l-148 -393z" />
<glyph unicode="z" horiz-adv-x="962" d="M0 0h143h430h144v287h-144h-176l299 499l21 35v183h-144h-430h-143v-287h143h176l-299 -500l-20 -37v-180z" />
<glyph unicode="{" horiz-adv-x="849" d="M-61 586l59 -58l43 -43l117 -114v-473v-144h143h160h143v287h-143h-17v389v59l-43 43l-57 58l59 59l41 41v60v389h17h143v286h-143h-160h-143v-143v-473l-119 -121z" />
<glyph unicode="|" horiz-adv-x="681" d="M74 -102v-144h286v144v1384v143h-286v-143v-1384z" />
<glyph unicode="}" horiz-adv-x="849" d="M-2 41v-287h143h160h143v144v473l117 114l43 43l60 58l-101 102l-119 121v473v143h-143h-160h-143v-286h143h17v-389v-60l41 -41l59 -59l-57 -58l-43 -43v-59v-389h-17h-143z" />
<glyph unicode="~" horiz-adv-x="1126" d="M-61 528l198 -206l103 98l100 96l100 -96l99 -94l98 94l199 190l104 101l-199 207l-102 -99l-100 -96l-101 96l-98 94l-98 -94l-199 -190z" />
<glyph unicode="&#xad;" horiz-adv-x="874" d="M-2 571h143h344h144v287h-144h-344h-143v-287z" />
<glyph unicode="&#x2000;" horiz-adv-x="788" />
<glyph unicode="&#x2001;" horiz-adv-x="1577" />
<glyph unicode="&#x2002;" horiz-adv-x="788" />
<glyph unicode="&#x2003;" horiz-adv-x="1577" />
<glyph unicode="&#x2004;" horiz-adv-x="525" />
<glyph unicode="&#x2005;" horiz-adv-x="394" />
<glyph unicode="&#x2006;" horiz-adv-x="262" />
<glyph unicode="&#x2007;" horiz-adv-x="262" />
<glyph unicode="&#x2008;" horiz-adv-x="197" />
<glyph unicode="&#x2009;" horiz-adv-x="315" />
<glyph unicode="&#x200a;" horiz-adv-x="87" />
<glyph unicode="&#x2010;" horiz-adv-x="874" d="M-2 571h143h344h144v287h-144h-344h-143v-287z" />
<glyph unicode="&#x2011;" horiz-adv-x="874" d="M-2 571h143h344h144v287h-144h-344h-143v-287z" />
<glyph unicode="&#x2012;" horiz-adv-x="874" d="M-2 571h143h344h144v287h-144h-344h-143v-287z" />
<glyph unicode="&#x2013;" horiz-adv-x="1267" d="M-2 571h232h558h234v287h-234h-558h-232v-287z" />
<glyph unicode="&#x2014;" horiz-adv-x="2291" d="M-2 571h464h1117h467v287h-467h-1117h-464v-287z" />
<glyph unicode="&#x202f;" horiz-adv-x="315" />
<glyph unicode="&#x205f;" horiz-adv-x="394" />
<glyph unicode="&#x25fc;" horiz-adv-x="1003" d="M0 0v1004h1004v-1004h-1004z" />
</font>
</defs>
</svg>
